<?xml version="1.0" encoding="UTF-8" standalone="no"?>
<!-- Created with Inkscape (http://www.inkscape.org/) -->

<svg
   xmlns:dc="http://purl.org/dc/elements/1.1/"
   xmlns:cc="http://creativecommons.org/ns#"
   xmlns:rdf="http://www.w3.org/1999/02/22-rdf-syntax-ns#"
   xmlns:svg="http://www.w3.org/2000/svg"
   xmlns="http://www.w3.org/2000/svg"
   xmlns:sodipodi="http://sodipodi.sourceforge.net/DTD/sodipodi-0.dtd"
   xmlns:inkscape="http://www.inkscape.org/namespaces/inkscape"
   width="1920"
   height="774"
   viewBox="0 0 507.99999 204.78859"
   version="1.1"
   id="svg2337"
   inkscape:version="0.92.3 (2405546, 2018-03-11)"
   sodipodi:docname="logo-wide.svg"
   inkscape:export-filename="/home/martas/gvfs/sftp:host=fatty/data/share/Work/nebula-broadcast/logo-wide-black.png"
   inkscape:export-xdpi="96"
   inkscape:export-ydpi="96">
  <defs
     id="defs2331">
    <clipPath
       clipPathUnits="userSpaceOnUse"
       id="clipPath2940">
      <rect
         style="opacity:1;fill:#1a1a1a;fill-opacity:1;stroke:#000000;stroke-width:0.87599999;stroke-linejoin:round;stroke-miterlimit:10;stroke-dasharray:none;stroke-opacity:0.00495049"
         id="rect2942"
         width="508"
         height="285.75"
         x="0.43799999"
         y="10.811985" />
    </clipPath>
  </defs>
  <sodipodi:namedview
     id="base"
     pagecolor="#ffffff"
     bordercolor="#666666"
     borderopacity="1.0"
     inkscape:pageopacity="0.0"
     inkscape:pageshadow="2"
     inkscape:zoom="0.49497475"
     inkscape:cx="748.1027"
     inkscape:cy="532.27758"
     inkscape:document-units="px"
     inkscape:current-layer="g1453"
     showgrid="false"
     units="px"
     borderlayer="true"
     inkscape:showpageshadow="false"
     showguides="true"
     inkscape:guide-bbox="true"
     inkscape:window-width="1920"
     inkscape:window-height="1035"
     inkscape:window-x="0"
     inkscape:window-y="22"
     inkscape:window-maximized="0">
    <sodipodi:guide
       position="0,0"
       orientation="1,0"
       id="guide2882"
       inkscape:locked="false"
       inkscape:label=""
       inkscape:color="rgb(0,0,255)" />
    <sodipodi:guide
       position="508,0"
       orientation="1,0"
       id="guide2884"
       inkscape:locked="false"
       inkscape:label=""
       inkscape:color="rgb(0,0,255)" />
    <sodipodi:guide
       position="25.4,0"
       orientation="1,0"
       id="guide3089"
       inkscape:locked="false"
       inkscape:label=""
       inkscape:color="rgb(0,0,255)" />
    <sodipodi:guide
       position="482.6,0"
       orientation="1,0"
       id="guide3091"
       inkscape:locked="false"
       inkscape:label=""
       inkscape:color="rgb(0,0,255)" />
  </sodipodi:namedview>
  <metadata
     id="metadata2334">
    <rdf:RDF>
      <cc:Work
         rdf:about="">
        <dc:format>image/svg+xml</dc:format>
        <dc:type
           rdf:resource="http://purl.org/dc/dcmitype/StillImage" />
        <dc:title></dc:title>
      </cc:Work>
    </rdf:RDF>
  </metadata>
  <g
     inkscape:label="Layer 1"
     inkscape:groupmode="layer"
     id="layer1"
     transform="translate(0,-92.212648)"
     style="display:inline">
    <g
       transform="translate(10.679519,16.462863)"
       id="g2925"
       style="fill:#000000">
      <g
         id="g1453"
         transform="translate(0,-7.7945425)">
        <g
           id="g893"
           transform="translate(0,10.054213)">
          <path
             inkscape:connector-curvature="0"
             id="path1381"
             style="fill:none;stroke:#f2f2f2;stroke-width:5.33855391;stroke-linecap:butt;stroke-linejoin:miter;stroke-miterlimit:10;stroke-dasharray:none;stroke-opacity:1"
             d="M -8.1043857,275.36853 H 192.58936 V 76.399942 H -8.1043857 Z" />
          <path
             d="m 221.17197,170.02857 v -35.54655 h 7.38558 l 9.17825,15.23775 c 2.36977,3.95984 4.42644,8.07317 6.06563,11.92252 h 0.10437 c -0.42361,-4.74568 -0.58324,-9.33788 -0.58324,-14.76502 v -12.39525 h 6.01038 v 35.54655 h -6.69184 l -9.28876,-15.61224 c -2.2654,-3.9046 -4.63517,-8.28192 -6.37873,-12.28474 l -0.15962,0.0491 c 0.26399,4.58606 0.31924,9.28263 0.31924,15.13952 v 12.70835 z"
             style="fill:#f2f2f2;fill-opacity:1;fill-rule:nonzero;stroke:none;stroke-width:5.33855438;stroke-miterlimit:10;stroke-dasharray:none"
             id="path1385"
             inkscape:connector-curvature="0" />
          <path
             d="m 294.20207,154.25794 h -13.39595 v 10.44295 h 14.97989 v 5.32891 h -21.46913 v -35.54655 h 20.67716 v 5.32278 h -14.18792 v 9.17825 h 13.39595 z"
             style="fill:#f2f2f2;fill-opacity:1;fill-rule:nonzero;stroke:none;stroke-width:5.33855438;stroke-miterlimit:10;stroke-dasharray:none"
             id="path1389"
             inkscape:connector-curvature="0" />
          <path
             d="m 325.41128,165.33448 c 0.84108,0.10437 1.9523,0.15962 3.42573,0.15962 4.16858,0 7.8583,-1.58394 7.8583,-5.96126 0,-4.11333 -3.59149,-5.80164 -8.06704,-5.80164 h -3.21699 z m 0,-16.34896 h 3.32136 c 4.48169,0 7.01108,-2.11192 7.01108,-5.11403 0,-3.3275 -2.52939,-4.85619 -6.64272,-4.85619 -1.89704,0 -3.00826,0.10437 -3.68972,0.26399 z m -6.43399,-14.0283 c 2.05667,-0.42361 5.7955,-0.73671 9.43611,-0.73671 4.80093,0 7.75393,0.57709 10.17896,2.2654 2.21628,1.31995 3.69586,3.6406 3.69586,6.64272 0,3.27225 -2.05667,6.28051 -5.90601,7.70482 v 0.10437 c 3.73883,0.95159 7.1707,3.9046 7.1707,8.80376 0,3.16788 -1.3752,5.64815 -3.43187,7.33646 -2.52939,2.21629 -6.69797,3.32136 -13.18107,3.32136 -3.58536,0 -6.32962,-0.26399 -7.96268,-0.47272 z"
             style="fill:#f2f2f2;fill-opacity:1;fill-rule:nonzero;stroke:none;stroke-width:5.33855438;stroke-miterlimit:10;stroke-dasharray:none"
             id="path1393"
             inkscape:connector-curvature="0" />
          <path
             d="m 373.28116,134.48203 v 20.72628 c 0,6.96196 2.90389,10.17896 7.28121,10.17896 4.69043,0 7.48381,-3.217 7.48381,-10.17896 v -20.72628 h 6.48924 v 20.30267 c 0,10.97092 -5.64202,15.82711 -14.18793,15.82711 -8.22666,0 -13.55557,-4.5922 -13.55557,-15.77186 v -20.35792 z"
             style="fill:#f2f2f2;fill-opacity:1;fill-rule:nonzero;stroke:none;stroke-width:5.33855438;stroke-miterlimit:10;stroke-dasharray:none"
             id="path1397"
             inkscape:connector-curvature="0" />
          <path
             d="m 419.46403,134.48203 h 6.48924 v 30.11327 h 14.6054 v 5.43328 h -21.09464 z"
             style="fill:#f2f2f2;fill-opacity:1;fill-rule:nonzero;stroke:none;stroke-width:5.33855438;stroke-miterlimit:10;stroke-dasharray:none"
             id="path1401"
             inkscape:connector-curvature="0" />
          <path
             d="m 480.46724,155.04931 -2.79338,-8.75464 c -0.6876,-2.16104 -1.2647,-4.58606 -1.79268,-6.64272 h -0.1105 c -0.52798,2.05666 -1.05596,4.5308 -1.68217,6.64272 l -2.74427,8.75464 z m -10.17896,4.9053 -3.05737,10.07459 h -6.69798 l 11.3884,-35.54655 h 8.28192 l 11.54802,35.54655 h -6.96196 l -3.21086,-10.07459 z"
             style="fill:#f2f2f2;fill-opacity:1;fill-rule:nonzero;stroke:none;stroke-width:5.33855438;stroke-miterlimit:10;stroke-dasharray:none"
             id="path1405"
             inkscape:connector-curvature="0" />
          <path
             d="m 226.40586,217.9587 c 0.6876,0.0859 1.59622,0.12893 2.80566,0.12893 3.40117,0 6.41557,-1.2954 6.41557,-4.86847 0,-3.36434 -2.92845,-4.73954 -6.59361,-4.73954 h -2.62762 z m 0,-13.35912 h 2.71357 c 3.66516,0 5.73411,-1.72514 5.73411,-4.18086 0,-2.71357 -2.06895,-3.95985 -5.42714,-3.95985 -1.55325,0 -2.46186,0.0798 -3.02054,0.20874 z m -5.25524,-11.46207 c 1.67603,-0.3438 4.73954,-0.60779 7.71096,-0.60779 3.92301,0 6.33576,0.47886 8.31875,1.86021 1.8111,1.07437 3.0144,2.97142 3.0144,5.42714 0,2.67059 -1.67603,5.12631 -4.82549,6.29278 v 0.0798 c 3.05737,0.77969 5.86303,3.19244 5.86303,7.2014 0,2.58465 -1.12349,4.61062 -2.80566,5.98582 -2.06281,1.81109 -5.47012,2.71971 -10.76833,2.71971 -2.92845,0 -5.17543,-0.21488 -6.50766,-0.39292 z"
             style="fill:#f2f2f2;fill-opacity:1;fill-rule:nonzero;stroke:none;stroke-width:5.33855438;stroke-miterlimit:10;stroke-dasharray:none"
             id="path1409"
             inkscape:connector-curvature="0" />
          <path
             d="m 256.34415,205.97725 h 3.14946 c 3.57307,0 5.81392,-1.89704 5.81392,-4.78251 0,-3.1863 -2.24085,-4.65359 -5.68499,-4.65359 -1.68217,0 -2.76269,0.12892 -3.27839,0.25785 z m -5.25524,-12.83728 c 1.98299,-0.3438 4.95441,-0.60779 8.01179,-0.60779 4.18086,0 7.02949,0.6876 8.96337,2.3268 1.59622,1.33836 2.4987,3.36433 2.4987,5.82005 0,3.75112 -2.54167,6.29279 -5.25524,7.28121 v 0.12893 c 2.06894,0.77969 3.31522,2.79952 4.05194,5.60518 0.90861,3.61605 1.68216,6.98038 2.28382,8.09774 h -5.47012 c -0.43589,-0.8595 -1.12349,-3.22927 -1.94002,-6.85146 -0.82267,-3.79409 -2.19787,-4.99739 -5.21227,-5.08334 h -2.67673 v 11.9348 h -5.25524 z"
             style="fill:#f2f2f2;fill-opacity:1;fill-rule:nonzero;stroke:none;stroke-width:5.33855438;stroke-miterlimit:10;stroke-dasharray:none"
             id="path1413"
             inkscape:connector-curvature="0" />
          <path
             d="m 284.81642,207.40095 c 0,5.89987 2.97142,10.60257 8.05476,10.60257 5.13246,0 8.01793,-4.73954 8.01793,-10.81745 0,-5.47625 -2.71357,-10.64554 -8.01793,-10.64554 -5.2491,0 -8.05476,4.86846 -8.05476,10.86042 m 21.67787,-0.42975 c 0,9.73693 -5.90601,15.293 -13.91779,15.293 -8.18983,0 -13.35912,-6.24367 -13.35912,-14.7773 0,-8.9204 5.59904,-15.21319 13.78887,-15.21319 8.48451,0 13.48804,6.42171 13.48804,14.69749"
             style="fill:#f2f2f2;fill-opacity:1;fill-rule:nonzero;stroke:none;stroke-width:5.33855438;stroke-miterlimit:10;stroke-dasharray:none"
             id="path1417"
             inkscape:connector-curvature="0" />
          <path
             d="m 329.66521,209.55646 -2.28382,-7.15842 c -0.55868,-1.76198 -1.0314,-3.74498 -1.46115,-5.42715 h -0.0921 c -0.42975,1.68217 -0.8595,3.70814 -1.37521,5.42715 l -2.24084,7.15842 z m -8.31261,4.00282 -2.4987,8.23281 h -5.47625 l 9.30718,-29.04503 h 6.7655 l 9.43611,29.04503 h -5.69113 l -2.62762,-8.23281 z"
             style="fill:#f2f2f2;fill-opacity:1;fill-rule:nonzero;stroke:none;stroke-width:5.33855438;stroke-miterlimit:10;stroke-dasharray:none"
             id="path1421"
             inkscape:connector-curvature="0" />
          <path
             d="m 353.35851,217.74321 c 0.73058,0.12893 1.85407,0.12893 2.92845,0.12893 6.89443,0.043 10.98934,-3.75112 10.98934,-11.11828 0.0368,-6.42171 -3.66516,-10.08687 -10.30174,-10.08687 -1.68217,0 -2.88547,0.12893 -3.61605,0.30697 z m -5.29822,-24.60631 c 2.3268,-0.38678 5.29822,-0.60166 8.44154,-0.60166 5.42714,0 9.17826,1.11736 11.84885,3.3582 2.79952,2.28382 4.52467,5.73411 4.52467,10.68852 0,5.16929 -1.76198,9.04933 -4.52467,11.54803 -2.88547,2.62762 -7.49608,3.96598 -13.1381,3.96598 -3.10649,0 -5.43328,-0.1719 -7.15229,-0.38677 z"
             style="fill:#f2f2f2;fill-opacity:1;fill-rule:nonzero;stroke:none;stroke-width:5.33855438;stroke-miterlimit:10;stroke-dasharray:none"
             id="path1425"
             inkscape:connector-curvature="0" />
          <path
             d="m 403.42026,220.92951 c -1.25242,0.64463 -4.00896,1.29539 -7.50222,1.29539 -9.22123,0 -14.82028,-5.77094 -14.82028,-14.60539 0,-9.57117 6.63659,-15.34211 15.51402,-15.34211 3.48712,0 5.98581,0.73057 7.06633,1.28925 l -1.16033,4.22384 c -1.38134,-0.60165 -3.27838,-1.12349 -5.69113,-1.12349 -5.90601,0 -10.16668,3.70813 -10.16668,10.68852 0,6.37873 3.74497,10.47364 10.12371,10.47364 2.15489,0 4.39574,-0.42975 5.77094,-1.08051 z"
             style="fill:#f2f2f2;fill-opacity:1;fill-rule:nonzero;stroke:none;stroke-width:5.33855438;stroke-miterlimit:10;stroke-dasharray:none"
             id="path1429"
             inkscape:connector-curvature="0" />
          <path
             d="m 427.49801,209.55646 -2.28382,-7.15842 c -0.56482,-1.76198 -1.03754,-3.74498 -1.46115,-5.42715 h -0.0921 c -0.42975,1.68217 -0.86564,3.70814 -1.38135,5.42715 l -2.24084,7.15842 z m -8.31261,4.00282 -2.50484,8.23281 h -5.47011 l 9.30104,-29.04503 h 6.77164 l 9.43611,29.04503 h -5.69113 l -2.62762,-8.23281 z"
             style="fill:#f2f2f2;fill-opacity:1;fill-rule:nonzero;stroke:none;stroke-width:5.33855438;stroke-miterlimit:10;stroke-dasharray:none"
             id="path1433"
             inkscape:connector-curvature="0" />
          <path
             d="m 445.76618,216.01929 c 1.719,0.98843 4.30365,1.85407 7.02336,1.85407 3.40117,0 5.29822,-1.59622 5.29822,-3.96599 0,-2.19787 -1.46116,-3.49326 -5.1693,-4.82549 -4.78251,-1.72514 -7.83988,-4.26681 -7.83988,-8.44768 0,-4.73954 3.95985,-8.36172 10.25263,-8.36172 3.14332,0 5.47012,0.69374 6.98038,1.46729 l -1.29539,4.26681 c -1.0314,-0.55867 -3.05737,-1.38134 -5.77094,-1.38134 -3.36434,0 -4.82549,1.81109 -4.82549,3.49326 0,2.24085 1.67603,3.27225 5.55607,4.78252 5.04036,1.89704 7.50222,4.43871 7.50222,8.61957 0,4.65359 -3.53624,8.70553 -11.03232,8.70553 -3.05737,0 -6.24981,-0.86564 -7.83989,-1.81109 z"
             style="fill:#f2f2f2;fill-opacity:1;fill-rule:nonzero;stroke:none;stroke-width:5.33855438;stroke-miterlimit:10;stroke-dasharray:none"
             id="path1437"
             inkscape:connector-curvature="0" />
          <path
             d="m 478.93232,197.18761 h -8.27578 v -4.43871 h 21.93572 v 4.43871 h -8.36172 v 24.60631 h -5.29822 z"
             style="fill:#f2f2f2;fill-opacity:1;fill-rule:nonzero;stroke:none;stroke-width:5.33855438;stroke-miterlimit:10;stroke-dasharray:none"
             id="path1441"
             inkscape:connector-curvature="0" />
          <path
             d="m 152.23817,185.24298 c -4.85619,-4.3896 -12.06986,-7.80305 -17.94517,-7.76008 6.37259,-0.95773 11.30859,-3.37047 14.80799,-7.24437 3.50554,-3.86776 5.25524,-8.63186 5.25524,-14.28615 0,-8.12843 -3.68358,-14.84483 -10.20966,-18.88449 -5.7648,-3.57307 -14.32298,-4.74568 -24.26251,-5.39644 l -1.93388,0.0123 -0.93931,-0.006 h -9.88428 l -3.80022,0.006 v 3.52395 65.07045 L 102.85364,199.52299 52.812205,131.696 h -4.137888 l 54.652053,74.18731 v 14.08355 l -0.42362,0.12893 -65.733482,-88.4182 h -3.867759 v 3.53009 91.02741 h 3.867759 v -87.89022 l 0.423612,-0.13507 65.73349,88.6208 h 3.80022 v -91.62292 h 11.2165 c 9.11073,0.50957 18.45474,2.08123 23.36004,5.12632 5.55607,3.45643 8.34331,8.5766 8.34331,15.36053 0,6.91285 -2.6399,12.05758 -7.9197,15.42806 -4.89302,3.1249 -12.20493,4.72726 -21.5121,4.95441 v 3.57308 l 4.43257,0.0491 c 9.55889,0 16.98744,2.01983 22.29794,6.06563 5.29207,4.0458 7.95039,8.9818 7.95039,14.80799 0,7.08475 -2.76882,12.61012 -8.30647,16.56997 -5.53765,3.95371 -13.11355,5.93057 -22.72769,5.93057 l -3.61605,0.006 v 3.55465 l 3.61605,-0.0368 c 10.60871,0 19.13006,-2.28382 25.5886,-6.84532 6.44627,-4.56764 9.67554,-11.00163 9.67554,-19.3081 0,-5.74025 -2.43116,-10.81131 -7.28735,-15.20091"
             style="fill:#000000;fill-opacity:1;fill-rule:nonzero;stroke:#ffffff;stroke-width:5.33855438;stroke-miterlimit:10;stroke-dasharray:none"
             id="path1445"
             inkscape:connector-curvature="0" />
          <path
             d="m 152.23817,185.24298 c -4.85619,-4.3896 -12.06986,-7.80305 -17.94517,-7.76008 6.37259,-0.95773 11.30859,-3.37047 14.80799,-7.24437 3.50554,-3.86776 5.25524,-8.63186 5.25524,-14.28615 0,-8.12843 -3.68358,-14.84483 -10.20966,-18.88449 -5.7648,-3.57307 -14.32298,-4.74568 -24.26251,-5.39644 l -1.93388,0.0123 -0.93931,-0.006 h -9.88428 l -3.80022,0.006 v 3.52395 65.07045 L 102.85364,199.52299 52.812205,131.696 h -4.137888 l 54.652053,74.18731 v 14.08355 l -0.42362,0.12893 -65.733482,-88.4182 h -3.867759 v 3.53009 91.02741 h 3.867759 v -87.89022 l 0.423612,-0.13507 65.73349,88.6208 h 3.80022 v -91.62292 h 11.2165 c 9.11073,0.50957 18.45474,2.08123 23.36004,5.12632 5.55607,3.45643 8.34331,8.5766 8.34331,15.36053 0,6.91285 -2.6399,12.05758 -7.9197,15.42806 -4.89302,3.1249 -12.20493,4.72726 -21.5121,4.95441 v 3.57308 l 4.43257,0.0491 c 9.55889,0 16.98744,2.01983 22.29794,6.06563 5.29207,4.0458 7.95039,8.9818 7.95039,14.80799 0,7.08475 -2.76882,12.61012 -8.30647,16.56997 -5.53765,3.95371 -13.11355,5.93057 -22.72769,5.93057 l -3.61605,0.006 v 3.55465 l 3.61605,-0.0368 c 10.60871,0 19.13006,-2.28382 25.5886,-6.84532 6.44627,-4.56764 9.67554,-11.00163 9.67554,-19.3081 0,-5.74025 -2.43116,-10.81131 -7.28735,-15.20091 z"
             style="fill:#f2f2f2;stroke:#f2f2f2;stroke-width:5.33855438;stroke-linecap:butt;stroke-linejoin:miter;stroke-miterlimit:10;stroke-dasharray:none;stroke-opacity:1"
             id="path1449"
             inkscape:connector-curvature="0" />
        </g>
      </g>
    </g>
  </g>
</svg>
