<?xml version="1.0" standalone="no"?>
<!DOCTYPE svg PUBLIC "-//W3C//DTD SVG 20010904//EN"
 "http://www.w3.org/TR/2001/REC-SVG-20010904/DTD/svg10.dtd">
<svg version="1.0" xmlns="http://www.w3.org/2000/svg"
 width="1000.000000pt" height="1000.000000pt" viewBox="0 0 1000.000000 1000.000000"
 preserveAspectRatio="xMidYMid meet">
<metadata>
Created by potrace 1.11, written by Peter Selinger 2001-2013
</metadata>
<g transform="translate(0.000000,1000.000000) scale(0.100000,-0.100000)"
fill="#000000" stroke="none">
<path d="M0 5000 l0 -5000 5000 0 5000 0 0 5000 0 5000 -5000 0 -5000 0 0
-5000z m3121 1573 c1218 -1643 2247 -3023 2255 -3023 2 0 4 48 4 108 l0 107
-1150 1560 c-632 858 -1150 1563 -1150 1568 0 4 96 7 214 7 l213 0 533 -722
c293 -398 714 -967 934 -1266 l401 -543 3 1267 2 1266 448 -5 c449 -4 553 -11
812 -52 124 -20 296 -66 389 -104 418 -173 649 -563 610 -1029 -26 -302 -186
-561 -443 -716 l-57 -34 92 -48 c237 -122 422 -297 524 -495 75 -146 90 -215
89 -419 -1 -156 -4 -186 -27 -273 -101 -377 -401 -651 -859 -783 -180 -52
-354 -74 -640 -81 l-248 -6 0 181 0 182 143 0 c527 0 851 94 1063 308 122 124
173 249 181 440 4 80 1 144 -6 180 -41 188 -201 366 -422 471 -188 90 -355
120 -706 128 l-253 6 0 177 0 177 148 7 c537 26 842 149 964 390 49 96 59 143
65 281 4 100 1 146 -11 199 -35 148 -112 259 -240 344 -182 122 -544 196
-1013 209 l-233 6 -2 -1844 -3 -1844 -155 -3 -156 -2 -190 257 c-697 941
-2031 2741 -2153 2903 l-146 194 -3 -1662 -2 -1662 -190 0 -190 0 0 2003 c0
1102 3 2007 7 2010 3 4 75 7 159 7 l153 0 242 -327z"/>
</g>
</svg>
